<?xml version="1.0" encoding="UTF-8" standalone="no"?>
<!-- Created with Inkscape (http://www.inkscape.org/) -->

<svg
   xmlns:dc="http://purl.org/dc/elements/1.1/"
   xmlns:cc="http://creativecommons.org/ns#"
   xmlns:rdf="http://www.w3.org/1999/02/22-rdf-syntax-ns#"
   xmlns:svg="http://www.w3.org/2000/svg"
   xmlns="http://www.w3.org/2000/svg"
   xmlns:sodipodi="http://sodipodi.sourceforge.net/DTD/sodipodi-0.dtd"
   xmlns:inkscape="http://www.inkscape.org/namespaces/inkscape"
   id="svg3390"
   version="1.1"
   inkscape:version="0.91 r13725"
   width="1280"
   height="760"
   viewBox="0 0 1280 760"
   sodipodi:docname="animal-2099057_1280.svg">
  <metadata
     id="metadata3396">
    <rdf:RDF>
      <cc:Work
         rdf:about="">
        <dc:format>image/svg+xml</dc:format>
        <dc:type
           rdf:resource="http://purl.org/dc/dcmitype/StillImage" />
        <dc:title></dc:title>
      </cc:Work>
    </rdf:RDF>
  </metadata>
  <defs
     id="defs3394" />
  <sodipodi:namedview
     pagecolor="#ffffff"
     bordercolor="#666666"
     borderopacity="1"
     objecttolerance="10"
     gridtolerance="10"
     guidetolerance="10"
     inkscape:pageopacity="0"
     inkscape:pageshadow="2"
     inkscape:window-width="1397"
     inkscape:window-height="876"
     id="namedview3392"
     showgrid="false"
     inkscape:zoom="0.93026316"
     inkscape:cx="640"
     inkscape:cy="380"
     inkscape:window-x="43"
     inkscape:window-y="24"
     inkscape:window-maximized="1"
     inkscape:current-layer="svg3390" />
  <path
     style="fill:#050505"
     d="m 285.3094,604.95376 c -1.61954,-2.3078 -2.18826,-4.90907 -2.16513,-9.90308 0.037,-7.99234 2.45041,-17.52449 8.71984,-34.4404 1.7592,-4.74662 3.12778,-8.84253 3.04128,-9.10203 -0.0865,-0.25949 -2.82791,4.70964 -6.09201,11.04253 -3.26411,6.33288 -6.54268,12.47736 -7.28571,13.6544 -1.25238,1.9839 -1.40989,2.08112 -2.1586,1.33241 -0.55855,-0.55854 -0.86364,-1.91657 -0.98921,-4.40304 -0.16708,-3.30879 -0.0183,-3.98885 1.86659,-8.53059 1.12648,-2.71435 3.91744,-8.31047 6.20212,-12.43584 2.28469,-4.12537 4.15398,-7.63372 4.15398,-7.79635 0,-0.59979 -3.14335,2.71696 -6.54178,6.90264 -3.87568,4.77349 -5.09708,5.43444 -4.54798,2.4611 0.54516,-2.95197 2.86493,-7.34894 6.94665,-13.1669 9.45169,-13.47218 11.47927,-16.93265 13.41081,-22.88826 2.30089,-7.09447 2.92553,-11.73 3.52083,-26.12843 0.26396,-6.38436 0.81536,-13.99755 1.22535,-16.9182 1.4395,-10.25468 4.5115,-20.09644 9.18717,-29.43286 1.32186,-2.63954 2.26713,-4.79916 2.10058,-4.79916 -0.16656,0 -1.10995,0.63503 -2.09643,1.41117 -3.85263,3.03115 -7.99792,4.38493 -8.60249,2.80943 -0.89902,-2.34281 2.97949,-9.79902 8.92395,-17.15579 1.48296,-1.8353 2.60215,-3.43105 2.48708,-3.54612 -0.11507,-0.11507 -3.02522,2.09653 -6.467,4.91467 -7.06249,5.78278 -13.79133,10.67829 -20.23712,14.72334 -6.31843,3.96513 -7.00153,3.68277 -3.87528,-1.60186 2.63771,-4.4588 7.22447,-10.00865 12.41436,-15.02103 2.48299,-2.39806 4.4007,-4.47395 4.26157,-4.61307 -0.35561,-0.35561 -7.68319,4.58814 -13.2471,8.93751 -6.39253,4.99709 -9.89652,7.33804 -13.61862,9.09832 -4.94,2.33624 -9.85558,3.14421 -9.85558,1.61993 0,-0.2328 0.71625,-1.51337 1.59167,-2.84572 2.98968,-4.55011 10.25957,-11.50914 18.2851,-17.50321 4.29956,-3.21123 7.62204,-5.8347 7.38331,-5.82992 -0.23873,0.005 -3.97805,1.89983 -8.30959,4.21123 -18.39743,9.81728 -32.90786,16.45336 -35.97689,16.45336 -3.82501,0 -0.39724,-5.57581 6.62905,-10.78318 3.94988,-2.92736 10.9429,-7.09971 19.40972,-11.58072 3.46784,-1.83532 6.21235,-3.42976 6.09892,-3.5432 -0.11343,-0.11343 -7.04849,2.5415 -15.41124,5.89983 -24.51142,9.84337 -29.01648,11.2881 -34.44849,11.0473 -2.56423,-0.11368 -3.41657,-0.34591 -3.8395,-1.04614 -0.45835,-0.75889 -0.22658,-1.18345 1.47789,-2.70722 5.4511,-4.87318 14.15655,-8.63698 46.95446,-20.30072 7.40244,-2.63249 4.07286,-2.21228 -6.15276,0.77651 -41.09776,12.01226 -41.56716,12.13598 -47.00707,12.39002 -19.114,0.89262 -7.48998,-7.08703 22.77481,-15.63444 4.93538,-1.39386 9.08417,-2.64911 9.21953,-2.78945 1.13557,-1.17735 -40.0358,7.49968 -61.77369,13.01906 l -10.82885,2.74951 -10.82886,0.0534 c -10.5185,0.0519 -10.82885,0.0252 -10.82885,-0.93104 0,-0.71645 0.938,-1.48252 3.44555,-2.814 5.08387,-2.69951 11.05573,-4.5395 22.83187,-7.03476 35.40554,-7.50211 76.63523,-17.08452 77.58114,-18.03105 0.32831,-0.32852 0.0824,-0.40794 -0.73834,-0.23848 -0.6768,0.13974 -2.33804,0.39642 -3.69165,0.5704 -9.17279,1.17897 -86.73577,15.83454 -117.39462,22.18178 -10.6776,2.21055 -11.38403,2.29346 -19.68883,2.31065 -9.11649,0.0188 -11.56551,-0.26494 -11.99737,-1.39036 -0.48737,-1.27007 1.15633,-2.15704 8.20635,-4.42826 16.91003,-5.44769 43.16137,-11.06659 94.11351,-20.14428 27.96254,-4.98184 35.15333,-6.38051 33.81312,-6.57693 -2.52349,-0.36983 -38.44731,4.52385 -64.57691,8.79692 -29.75321,4.86565 -55.44468,10.08451 -82.20085,16.69794 -7.483117,1.84963 -15.537037,2.41119 -21.686517,1.5121 -10.61727,-1.55232 -9.5879,-3.80042 3.70602,-8.09382 18.182847,-5.87234 42.597497,-10.42165 115.194077,-21.46471 38.08741,-5.79369 38.63932,-5.8853 38.63932,-6.41408 0,-0.22337 -1.16287,-0.30894 -2.58416,-0.19016 -1.42129,0.11878 -8.89689,0.55742 -16.61245,0.97475 -16.93398,0.91597 -21.83231,1.35387 -32.78514,2.93096 -16.39118,2.36015 -52.24041,9.2488 -100.114427,19.2376 -22.32206,4.65744 -27.45794,5.33877 -36.56829,4.8511 -6.5118,-0.34857 -7.96563,-0.84841 -7.62835,-2.62272 0.51375,-2.70272 17.46567,-8.24011 37.79777,-12.34677 21.64523,-4.37187 44.615917,-7.8513 104.350777,-15.80628 29.18399,-3.88648 49.91772,-6.74938 51.56011,-7.1194 2.14532,-0.48332 1.06793,-1.07408 -2.5105,-1.37657 -7.52589,-0.63617 -26.07646,1.01817 -49.24153,4.39137 -22.82299,3.32338 -41.47824,6.6022 -123.355457,21.68076 -22.33607,4.11343 -25.99298,4.66637 -30.76379,4.65166 -8.8914,-0.0274 -15.19528,-2.05593 -13.03551,-4.19468 0.91552,-0.90661 9.8846,-4.37229 19.04084,-7.35745 37.98137,-12.38285 96.593287,-21.68533 169.471327,-26.89732 9.3546,-0.66901 9.19956,-0.62745 8.17496,-2.19118 -1.12103,-1.71091 -0.98231,-3.35325 0.39232,-4.64464 0.91983,-0.86414 2.26507,-1.26047 6.02971,-1.77644 5.64556,-0.77376 14.84224,-1.52448 24.41149,-1.99267 3.72242,-0.18213 6.76804,-0.4975 6.76804,-0.70084 0,-0.20332 -2.93487,-0.51991 -6.52193,-0.70353 -20.23862,-1.03599 -36.86706,-3.00416 -48.76411,-5.77179 -7.07393,-1.64562 -6.28348,-3.51819 2.21585,-5.24935 9.0946,-1.85241 15.70578,-2.4787 35.59635,-3.37209 7.45825,-0.33499 7.36977,-0.79356 -0.2586,-1.34028 -29.09726,-2.0854 -52.20852,-5.87656 -61.88425,-10.1515 -2.46396,-1.08862 -2.86032,-2.68073 -0.85699,-3.44239 4.96802,-1.88884 27.26766,-3.47083 43.31102,-3.07258 5.1437,0.12768 9.24144,0.11998 9.10608,-0.0171 -0.13536,-0.13709 -5.78359,-1.17386 -12.55163,-2.30394 -21.05857,-3.51623 -35.06864,-6.72922 -48.55504,-11.13536 -6.83331,-2.23251 -8.01709,-2.91988 -7.71651,-4.48065 0.22257,-1.15572 2.10957,-1.46655 12.46392,-2.05306 7.78877,-0.44118 16.26406,-0.24928 31.0099,0.70213 2.97793,0.19214 5.30367,0.23094 5.16831,0.0862 -0.13536,-0.14473 -4.23309,-1.29821 -9.10608,-2.56328 -16.04257,-4.16485 -28.84464,-8.83591 -41.34653,-15.08602 -7.88236,-3.94066 -12.30552,-6.75156 -12.30552,-7.82011 0,-3.08027 29.76452,1.19404 58.50081,8.40096 11.92702,2.99124 15.29979,3.49767 9.91786,1.4892 -36.77244,-13.72302 -54.88812,-21.91215 -69.03015,-31.20481 -4.768,-3.13303 -5.47548,-4.04098 -4.52809,-5.81119 0.55437,-1.03586 0.77669,-1.06452 6.05697,-0.78094 10.36347,0.55658 25.12783,4.13422 41.65969,10.09479 16.5698,5.97426 30.6372,11.91056 71.22769,30.05736 15.14271,6.76986 32.72176,14.54636 39.06455,17.28111 29.1102,12.55109 50.33872,24.64413 67.6543,38.53993 9.95716,7.99063 11.31825,9.67987 16.74893,20.78673 5.30941,10.85886 7.23479,13.3277 11.49831,14.74381 3.51258,1.16669 9.3425,0.90758 10.89164,-0.48409 0.5982,-0.53739 2.65397,-3.19207 4.56839,-5.89928 22.04915,-31.1802 35.41432,-43.03283 52.75919,-46.78839 4.7147,-1.02084 14.74808,-1.15327 19.42097,-0.25634 19.52609,3.74791 35.88558,16.63867 52.20787,41.13808 1.98399,2.97794 3.8344,5.56571 4.11198,5.7506 0.2776,0.18489 2.5092,0.69904 4.9591,1.14255 30.0884,5.44702 62.469,15.76899 84.3219,26.87938 10.2308,5.20153 22.7604,13.03168 22.7604,14.22377 0,0.29438 -2.3124,0.48744 -5.8381,0.48744 l -5.8381,0 -5.2083,-2.43822 c -21.8965,-10.25055 -51.0624,-18.65524 -83.906,-24.17911 -17.60377,-2.96071 -17.33029,-2.95457 -22.63963,-0.50884 -9.06394,4.17525 -16.3102,5.94931 -28.38377,6.94904 -9.70761,0.80382 -15.14294,2.98388 -21.26557,8.5294 -2.80974,2.5449 -3.28301,3.64017 -3.86327,8.94052 -0.17782,1.62432 -0.86876,6.38656 -1.53543,10.58274 -3.68558,23.19804 -9.55746,40.27491 -18.45624,53.67529 -3.9635,5.9685 -13.36302,15.41733 -19.3966,19.49834 -7.79554,5.27278 -17.58933,9.77502 -26.57376,12.21606 -21.91345,5.95381 -54.76503,19.66747 -76.30036,31.85106 l -2.95332,1.67084 -0.31411,15.4848 c -0.3155,15.5532 -0.75615,21.86897 -2.19978,31.52884 -0.8581,5.74193 -1.29139,6.92749 -2.19978,6.0191 -1.06043,-1.06043 -2.42881,-8.23867 -3.00503,-15.76382 -0.31514,-4.11558 -0.73034,-7.38562 -0.92266,-7.26676 -0.19232,0.11886 -0.50363,1.49265 -0.6918,3.05287 -1.16366,9.64852 -4.69949,29.4981 -6.17942,34.69029 -1.04464,3.66504 -2.43289,2.65505 -3.66109,-2.66355 -1.53142,-6.63164 -0.79399,-19.31262 1.99114,-34.23996 2.38318,-12.77309 2.07266,-12.98218 -1.77084,-1.19244 -3.29414,10.1046 -4.58385,15.36152 -6.61777,26.97439 -2.10035,11.99212 -3.3626,16.91781 -5.15653,20.12237 -1.65429,2.95511 -2.9509,3.3672 -4.34483,1.3809 z"
     id="path3406"
     inkscape:connector-curvature="0" />
</svg>
