<?xml version="1.0" encoding="UTF-8" standalone="no"?>
<!-- Created with Inkscape (http://www.inkscape.org/) -->

<svg
   xmlns:dc="http://purl.org/dc/elements/1.1/"
   xmlns:cc="http://creativecommons.org/ns#"
   xmlns:rdf="http://www.w3.org/1999/02/22-rdf-syntax-ns#"
   xmlns:svg="http://www.w3.org/2000/svg"
   xmlns="http://www.w3.org/2000/svg"
   xmlns:sodipodi="http://sodipodi.sourceforge.net/DTD/sodipodi-0.dtd"
   xmlns:inkscape="http://www.inkscape.org/namespaces/inkscape"
   id="svg3460"
   version="1.1"
   inkscape:version="0.91 r13725"
   width="1279.4862"
   height="759.81592"
   viewBox="0 0 1279.4862 759.81592"
   sodipodi:docname="animal-2.svg">
  <metadata
     id="metadata3466">
    <rdf:RDF>
      <cc:Work
         rdf:about="">
        <dc:format>image/svg+xml</dc:format>
        <dc:type
           rdf:resource="http://purl.org/dc/dcmitype/StillImage" />
        <dc:title></dc:title>
      </cc:Work>
    </rdf:RDF>
  </metadata>
  <defs
     id="defs3464" />
  <sodipodi:namedview
     pagecolor="#ffffff"
     bordercolor="#666666"
     borderopacity="1"
     objecttolerance="10"
     gridtolerance="10"
     guidetolerance="10"
     inkscape:pageopacity="0"
     inkscape:pageshadow="2"
     inkscape:window-width="1397"
     inkscape:window-height="876"
     id="namedview3462"
     showgrid="false"
     fit-margin-top="0"
     fit-margin-left="0"
     fit-margin-right="0"
     fit-margin-bottom="0"
     inkscape:zoom="0.36460193"
     inkscape:cx="349.76792"
     inkscape:cy="555.85564"
     inkscape:window-x="43"
     inkscape:window-y="24"
     inkscape:window-maximized="1"
     inkscape:current-layer="svg3460" />
  <path
     style="fill:#010101"
     d="m 551.23258,757.33072 c -1.08283,-1.543 -2.50351,-4.45469 -3.15707,-6.47042 -1.62645,-5.01633 -1.46861,-21.71682 0.292,-30.89673 3.00104,-15.64749 11.54952,-41.65653 23.73095,-72.20212 3.23825,-8.1201 5.88735,-15.0951 5.88689,-15.5 -4.6e-4,-0.4049 -4.52266,8.48882 -10.04933,19.76382 -13.64386,27.83492 -26.175,51 -27.58845,51 -1.80579,0 -3.36138,-5.68191 -3.36138,-12.27774 0,-4.76706 0.83059,-7.92994 4.09685,-15.60078 4.25627,-9.99591 15.71617,-31.7464 21.54459,-40.8909 3.8576,-6.05238 4.37869,-7.96255 1.10359,-4.04548 -1.23477,1.4768 -6.95666,8.3393 -12.71531,15.25 -5.75866,6.91069 -10.82116,12.5649 -11.25,12.5649 -2.48402,0 0.88415,-10.91656 6.01649,-19.5 1.97319,-3.3 8.21784,-12.57089 13.877,-20.60197 22.36345,-31.73659 26.48887,-44.97108 28.37102,-91.01502 0.54819,-13.41066 1.66515,-28.88901 2.48213,-34.39633 3.83946,-25.88199 12.17119,-49.88568 24.11897,-69.48668 l 2.74297,-4.5 -5.39905,4.83699 c -6.48584,5.81063 -14.16881,9.89387 -17.82143,9.4715 -2.38151,-0.27538 -2.64068,-0.68411 -2.41489,-3.80849 0.59121,-8.1809 11.49081,-25.59457 25.42989,-40.62789 3.74945,-4.04379 6.81718,-7.62392 6.81718,-7.95586 0,-0.33193 -3.20057,2.35972 -7.11239,5.98146 -14.46911,13.39619 -39.33296,32.40051 -56.2902,43.02461 -12.83875,8.04377 -14.22276,7.47008 -7.87305,-3.26351 7.28683,-12.31768 18.41683,-24.73741 36.77564,-41.03717 3.3,-2.92988 5.325,-4.96055 4.5,-4.51258 -5.15065,2.79671 -24.14223,15.94716 -33.19707,22.98683 -20.12564,15.64664 -29.44896,20.97761 -41.61297,23.79384 -9.34288,2.16307 -9.46415,0.0803 -0.66318,-11.38973 11.01927,-14.36108 38.19182,-36.21048 62.72322,-50.43564 2.6125,-1.51492 4.75,-2.95248 4.75,-3.19457 0,-0.24208 -0.7875,-0.0114 -1.75,0.51272 -0.9625,0.52408 -12.55,6.87815 -25.75,14.12016 -29.55771,16.21646 -58.77524,30.63662 -71.894,35.4829 -8.52795,3.15037 -10.08925,3.45975 -11.30822,2.24078 -4.59676,-4.59676 7.5973,-17.46479 29.20222,-30.81622 3.85,-2.37923 18.25,-10.1143 32,-17.18905 13.75,-7.07475 24.325,-12.64029 23.5,-12.36788 -0.825,0.27242 -16.125,6.5397 -34,13.9273 -57.55714,23.78791 -72.11423,28.7195 -84.77436,28.7195 -5.82524,0 -7.41443,-0.32842 -7.91617,-1.63592 -0.86914,-2.26494 0.57068,-4.24653 6.2815,-8.64509 11.22056,-8.64226 37.83576,-19.76706 92.67032,-38.73497 16.36871,-5.66213 29.60722,-10.44884 29.41892,-10.63715 -0.1883,-0.1883 -15.60588,4.18839 -34.26129,9.72597 -82.82571,24.5856 -92.05621,27.04832 -103.41892,27.59237 -12.80902,0.6133 -18.37377,-0.37805 -18.80569,-3.35018 -0.65771,-4.52578 22.47673,-15.7063 49.30569,-23.82867 13.97008,-4.2294 41.47989,-11.35753 56.40218,-14.6145 5.72119,-1.24873 9.96687,-2.41551 9.43483,-2.59286 -2.72252,-0.9075 -120.65431,24.20414 -156.64415,33.3548 l -22.19286,5.64269 -22.48058,0.11176 c -20.45137,0.10166 -22.51078,-0.0424 -22.8151,-1.59552 -0.2491,-1.27136 1.91621,-2.83091 8.48058,-6.10806 12.76614,-6.37327 21.47131,-8.94633 52.8151,-15.61099 68.13451,-14.48749 165.12484,-37.03207 162.73909,-37.82732 -2.62792,-0.87597 -167.42377,29.57769 -237.23909,43.8409 -46.33414,9.46602 -43.81269,9.10475 -63.5,9.09825 -18.20833,-0.006 -23.5,-0.82455 -23.5,-3.63508 0,-2.08084 3.50875,-3.69345 18.33175,-8.42516 38.52899,-12.29902 104.37284,-25.74712 255.94147,-52.27407 13.62528,-2.38465 24.3398,-4.48019 23.81005,-4.65678 -1.41131,-0.47043 -53.26498,6.12127 -93.58327,11.89643 -85.32597,12.22201 -154.35084,25.3064 -223.5,42.36676 -17.33424,4.27668 -33.0187,5.50078 -46.05681,3.59452 -21.14027,-3.09085 -19.84556,-7.1317 4.99115,-15.57766 36.4089,-12.3812 86.49176,-21.63834 259.56566,-47.97724 37.95,-5.77534 69.675,-10.71049 70.5,-10.96699 0.825,-0.25651 -1.65,-0.26816 -5.5,-0.0259 -3.85,0.24227 -18.475,1.12179 -32.5,1.95451 -44.53068,2.64395 -57.12799,3.62279 -72.5,5.63343 -33.31492,4.35755 -94.07413,15.75952 -191.5,35.93658 -29.425,6.09396 -57.325,11.80838 -62,12.69871 -10.683189,2.03455 -44.224479,2.29816 -47.810689,0.37576 -10.832369,-5.80673 20.42611,-17.92162 74.810689,-28.99445 41.82694,-8.51607 89.64862,-15.77968 208.0367,-31.5986 39.30481,-5.25187 80.70078,-10.89018 91.99104,-12.52957 11.29026,-1.63939 21.19026,-2.99439 22,-3.01112 1.27558,-0.0263 1.27187,-0.14278 -0.0277,-0.87152 -5.01529,-2.81229 -34.76033,-1.95179 -69,1.99612 -52.39131,6.04084 -97.35622,13.67523 -296.999999,50.42633 -51.183829,9.42209 -59.136379,10.16816 -74.499999,6.98923 -12.1396505,-2.51184 -13.7510405,-5.75722 -4.7712805,-9.60941 9.1873505,-3.94125 35.7266405,-13.0503 50.6813995,-17.39532 60.040139,-17.44434 121.927209,-28.60197 221.589839,-39.95046 19.67383,-2.24024 73.83032,-7.15465 101.182,-9.18171 l 23.682,-1.7551 -1.932,-2.71325 c -4.45184,-6.25204 -0.95328,-11.36802 8.85411,-12.94746 11.02697,-1.77584 39.36322,-3.94141 60.21389,-4.6018 11.275,-0.3571 21.36465,-0.95909 22.42145,-1.33775 1.05679,-0.37866 -8.16821,-0.99052 -20.5,-1.35968 -35.10926,-1.05102 -65.98915,-4.06251 -93.92145,-9.15948 -19.65538,-3.58664 -22.5,-4.54019 -22.5,-7.5423 0,-2.25724 0.72224,-2.63728 8.92303,-4.69533 17.97118,-4.51 41.47313,-6.73973 84.07697,-7.97675 14.85,-0.43117 24.75,-0.88613 22,-1.01102 -61.86791,-2.80963 -113.50903,-9.41133 -143.64057,-18.36273 -13.29018,-3.94821 -16.07149,-5.4067 -15.67142,-8.21793 0.38401,-2.69835 4.76124,-3.91035 22.2774,-6.16835 24.46356,-3.15357 63.75465,-3.5971 98.53099,-1.11223 4.12698,0.29489 -2.6214,-0.99164 -14.9964,-2.85894 -54.8932,-8.283 -88.86419,-15.61687 -121.22592,-26.17101 -14.75009,-4.81045 -17.38644,-6.369 -15.79702,-9.33886 1.42828,-2.66878 5.49552,-3.0671 37.52294,-3.67483 28.33869,-0.53773 31.40584,-0.39679 68.5,3.14771 3.35668,0.32075 -0.23623,-0.81537 -9.21983,-2.91541 -42.64745,-9.969407 -80.4937,-23.511378 -107.78017,-38.565408 -14.95808,-8.252419 -17.99625,-10.352216 -17.99821,-12.439254 -0.002,-1.8032 0.64871,-1.870811 12.24821,-1.273248 31.74718,1.635498 79.14179,10.759915 133.36255,25.674976 8.07624,2.221615 14.82036,3.903014 14.98694,3.736442 0.16657,-0.166572 -3.38767,-1.588038 -7.89832,-3.158814 C 335.12309,57.723655 280.00608,33.34394 250.20091,13.709189 240.59282,7.3796687 238.49315,4.5292137 241.1133,1.3721177 c 3.128,-3.769004 35.35519,0.602321 62.87289,8.5281349 39.24673,11.3040804 78.42707,27.0502524 174.5,70.1297374 24.75,11.098 57.375,25.56396 72.5,32.14658 75.52209,32.8683 114.85564,55.17054 152.90356,86.69674 16.39318,13.58327 18.86562,16.8178 29.72459,38.88671 10.75335,21.85426 14.55505,26.77673 22.86749,29.60906 5.45506,1.85873 15.69817,2.18179 20.13515,0.63505 2.16671,-0.75532 5.83991,-5.11564 14.11044,-16.75 28.41127,-39.96685 46.40333,-60.0927 66.81102,-74.73454 38.4228,-27.5671 87.96306,-25.18013 129.97681,6.26259 18.00295,13.47323 34.67755,31.97841 52.12515,57.84788 l 9.513,14.10479 7.1664,1.22908 c 3.9415,0.67599 15.4914,3.03273 25.6664,5.23719 78.0193,16.90325 139.169,40.46321 186,71.66268 l 11.5,7.66147 -12.9183,0.28113 -12.9183,0.28114 -14.0817,-6.40655 c -42.6004,-19.3813 -96.2705,-35.13559 -157.0817,-46.10958 -17.5361,-3.16457 -40.6266,-6.54614 -44.6993,-6.54614 -1.6993,0 -7.4893,2.01674 -12.8667,4.48164 -16.8985,7.74601 -33.12825,11.62797 -56.74805,13.57348 -19.57575,1.61242 -31.51349,6.52631 -43.19199,17.77897 l -5.88033,5.66591 -3.08456,22 c -7.65459,54.59493 -20.34077,93.11585 -40.32304,122.4388 -7.48225,10.97984 -27.24362,30.38701 -38.66384,37.97086 -16.65279,11.05865 -35.40444,19.65832 -53.5422,24.55491 -25.19919,6.80294 -67.67826,22.44732 -98,36.09187 -13.4147,6.03652 -46.4224,22.60807 -57,28.61691 l -6,3.40844 -0.61373,30.9591 c -0.61221,30.88251 -1.69912,46.48018 -4.49175,64.45911 -1.82929,11.77693 -2.1942,13 -3.87859,13 -3.04908,0 -7.24795,-27.10744 -7.66741,-49.5 -0.0927,-4.95 -0.34215,-7.425 -0.55427,-5.5 -2.46174,22.34006 -8.71049,60.0805 -12.96505,78.30472 -2.96231,12.68893 -4.61671,13.69296 -7.73003,4.69125 -5.08981,-14.71641 -2.33813,-52.02187 6.82002,-92.4614 1.36581,-6.03098 2.32028,-11.12843 2.12104,-11.32767 -0.5949,-0.5949 -14.21208,41.481 -16.9634,52.41546 -1.40085,5.56729 -3.69557,16.81729 -5.0994,25 -4.79373,27.94199 -7.80042,39.93319 -11.75415,46.87764 -2.86152,5.02606 -5.78049,5.64776 -8.47689,1.80545 z m 55.4466,-113.03642 c -0.25354,-0.97297 -0.47766,-0.41903 -0.49804,1.23097 -0.0204,1.65 0.18706,2.44606 0.46099,1.76903 0.27392,-0.67703 0.29059,-2.02703 0.0371,-3 z M 564.98619,353.02527 c 0.825,-0.53316 1.05,-0.96937 0.5,-0.96937 -0.55,0 -1.675,0.43621 -2.5,0.96937 -0.825,0.53316 -1.05,0.96937 -0.5,0.96937 0.55,0 1.675,-0.43621 2.5,-0.96937 z M 524.71536,329.4211 c -0.33229,-0.33229 -1.1948,-0.36781 -1.91667,-0.0789 -0.79773,0.31922 -0.56078,0.55618 0.60417,0.60416 1.05416,0.0434 1.64479,-0.19293 1.3125,-0.52522 z"
     id="path3476"
     inkscape:connector-curvature="0" />
</svg>
